<svg xmlns="http://www.w3.org/2000/svg" xmlns:xlink="http://www.w3.org/1999/xlink" width="500" zoomAndPan="magnify" viewBox="0 0 375 374.999991" height="500" preserveAspectRatio="xMidYMid meet" version="1.0"><defs><clipPath id="ad4dce9697"><path d="M 52.789062 21 L 322.039062 21 L 322.039062 337.496094 L 52.789062 337.496094 Z M 52.789062 21 " clip-rule="nonzero"/></clipPath></defs><g clip-path="url(#ad4dce9697)"><path fill="#894fbd" d="M 278.867188 85.195312 L 242.59375 160.417969 C 240.414062 164.941406 236.175781 168.128906 231.222656 168.96875 C 226.273438 169.808594 221.21875 168.199219 217.667969 164.644531 L 186.601562 133.578125 C 179.101562 126.078125 166.890625 126.078125 159.390625 133.578125 C 151.886719 141.082031 151.886719 153.289062 159.390625 160.792969 L 206.273438 207.675781 C 212.328125 213.730469 212.328125 223.546875 206.273438 229.601562 C 200.21875 235.65625 190.402344 235.65625 184.347656 229.601562 L 137.464844 182.714844 C 117.875 163.125 117.875 131.246094 137.464844 111.65625 C 157.058594 92.066406 188.933594 92.066406 208.527344 111.65625 L 224.152344 127.28125 L 276.585938 21.089844 L 245.042969 62.347656 C 227.589844 54.085938 208.082031 49.460938 187.488281 49.460938 C 113.089844 49.460938 52.777344 109.773438 52.777344 184.171875 C 52.777344 220.917969 67.488281 254.222656 91.339844 278.523438 L 126.371094 205.890625 C 128.550781 201.367188 132.789062 198.179688 137.742188 197.339844 C 142.691406 196.5 147.746094 198.109375 151.296875 201.664062 L 182.363281 232.730469 C 189.867188 240.230469 202.074219 240.230469 209.574219 232.730469 C 217.078125 225.226562 217.078125 213.015625 209.574219 205.515625 L 162.691406 158.632812 C 156.636719 152.578125 156.636719 142.761719 162.691406 136.710938 C 168.746094 130.65625 178.5625 130.65625 184.617188 136.710938 L 231.496094 183.589844 C 251.089844 203.183594 251.089844 235.058594 231.496094 254.652344 C 211.910156 274.242188 180.03125 274.242188 160.441406 254.652344 L 144.8125 239.023438 L 96.542969 337.394531 L 124.140625 303.089844 C 143.023438 313.171875 164.589844 318.886719 187.488281 318.886719 C 261.890625 318.886719 322.203125 258.574219 322.203125 184.171875 C 322.203125 145.039062 305.515625 109.804688 278.867188 85.195312 " fill-opacity="1" fill-rule="nonzero"/></g></svg>